<?xml version="1.0" encoding="utf-8"?>
<!-- Generator: Adobe Illustrator 21.0.2, SVG Export Plug-In . SVG Version: 6.00 Build 0)  -->
<!DOCTYPE svg PUBLIC "-//W3C//DTD SVG 1.1//EN" "http://www.w3.org/Graphics/SVG/1.1/DTD/svg11.dtd">
<svg version="1.1" id="Layer_1" xmlns:sketch="http://www.bohemiancoding.com/sketch/ns"
	 xmlns="http://www.w3.org/2000/svg" xmlns:xlink="http://www.w3.org/1999/xlink" x="0px" y="0px" viewBox="0 0 132 39"
	 style="enable-background:new 0 0 132 39;" xml:space="preserve">
<style type="text/css">
	.st0{fill-rule:evenodd;clip-rule:evenodd;fill:#382F2D;}
	.st1{fill-rule:evenodd;clip-rule:evenodd;fill:#FFFFFF;}
	.st2{fill:#FFFFFF;}
</style>
<title>Daily Header Logo</title>
<desc>Created with Sketch.</desc>
<g id="Artwork_1">
	<g>
		<g>
			<path class="st0" d="M36.4,18.3c0,10-8.1,18.2-18.2,18.2S0,28.3,0,18.3C0,8.3,8.1,0.1,18.2,0.1S36.4,8.3,36.4,18.3"/>
			<path class="st1" d="M17,7.6c-0.2,0-0.4,0.2-0.4,0.4v4.8H16V8c0-0.2-0.2-0.4-0.4-0.4c-0.2,0-0.4,0.2-0.4,0.4v4.8h-0.6V8
				c0-0.2-0.2-0.4-0.4-0.4c-0.2,0-0.4,0.2-0.4,0.4v4.8H13V8c0-0.2-0.2-0.4-0.4-0.4c-0.2,0-0.4,0.2-0.4,0.4v6.6
				c0,0.8,0.6,1.4,1.4,1.5v11.8c0,0.7,0.6,1.3,1.3,1.3c0.7,0,1.3-0.6,1.3-1.3V16.1c0.8-0.1,1.4-0.7,1.4-1.5V8
				C17.5,7.8,17.3,7.6,17,7.6"/>
			<path class="st1" d="M23.8,9.5c0-1.1-0.9-1.9-1.9-1.9c-1.1,0-1.9,0.9-1.9,1.9v11.2h1.3v7.2c0,0.7,0.6,1.3,1.3,1.3
				c0.7,0,1.3-0.6,1.3-1.3V9.5z"/>
			<path class="st2" d="M62.2,18.4c0,7.2-3.6,10.8-12.2,10.8h-7.2c0,0,0.1-6,0.1-10.7c0-3.4-0.2-10.8-0.2-10.8h7.5
				C58.1,7.6,62.2,10.8,62.2,18.4 M55,18.6c0-4-0.9-6.4-3.2-6.4h-1.8c0,2.3,0,4.7,0,6.3v5.9h2C54.3,24.4,55,22.6,55,18.6"/>
			<path class="st2" d="M75.9,29.1l-0.1-3.3c-0.8,1.7-2,3.9-6.3,3.9c-2.9,0-5.1-1.5-5.1-4.4c0-6.5,10.9-5,10.9-7.3
				c0-1.1-0.9-1.7-2.3-1.7c-3,0-6.9,2.6-6.9,2.6l-1.3-4.4c0,0,3.5-2.8,9.1-2.8c5.6,0,8.1,2.4,8.1,6.3c0,3.4,0.6,11.1,0.6,11.1H75.9z
				 M75.7,20.7c-1.3,1-3.8,1.6-3.8,3.7c0,1,0.5,1.4,1.1,1.4C74.6,25.7,75.4,23.3,75.7,20.7"/>
			<path class="st2" d="M89.6,10.4c-2.2,0-3.9-1.7-3.9-3.9c0-2.2,1.8-3.9,3.9-3.9c2.2,0,3.9,1.8,3.9,3.9
				C93.5,8.7,91.8,10.4,89.6,10.4 M85.8,29.1c0,0,0.2-4.8,0.2-8.6c0-3.4-0.3-8.2-0.3-8.2c3.5,0.2,7.7,0,7.7,0s-0.4,4.9-0.4,8.4
				c0,3.3,0,1.9,0.1,8.4H85.8z"/>
			<path class="st2" d="M97.3,29.2c0,0,0.2-6.8,0.2-12.9c0-4.8-0.3-13.1-0.3-13.1c3.5,0.2,7.8,0,7.8,0s-0.5,8.6-0.5,13.2
				c0,6.2,0,6.4,0.1,12.8H97.3z"/>
			<path class="st2" d="M125.7,12.4c0,15.3-9.9,26.6-22.9,26.6l-1.6-4.4c7.5,0,12.6-2.4,12.6-8.2c0-5.9-6.8-7.3-6.8-7.3l1.5-7.3
				c0,0,10.9,1.8,10.9,12c1-2.6,1.5-5.7,1.1-11.5H125.7z"/>
		</g>
	</g>
</g>
</svg>
